<mxfile host="app.diagrams.net" modified="2020-11-18T13:11:53.947Z" agent="5.0 (Windows NT 6.1; Win64; x64) AppleWebKit/537.36 (KHTML, like Gecko) Chrome/86.0.4240.198 Safari/537.36" etag="C1W0JKiwqQ46XEvBK20o" version="13.9.9" type="github">
  <diagram id="yQU9XVNkyh9_PEf1FD41" name="Page-1">
    <mxGraphModel dx="1422" dy="794" grid="1" gridSize="10" guides="1" tooltips="1" connect="1" arrows="1" fold="1" page="1" pageScale="1" pageWidth="827" pageHeight="1169" math="0" shadow="0">
      <root>
        <mxCell id="0" />
        <mxCell id="1" parent="0" />
        <mxCell id="0O0ggUQHUPl4NejqoUbk-1" value="IO北桥芯片" style="rounded=0;whiteSpace=wrap;html=1;fillColor=#ffe6cc;strokeColor=#d79b00;" parent="1" vertex="1">
          <mxGeometry x="191" y="120" width="80" height="40" as="geometry" />
        </mxCell>
        <mxCell id="0O0ggUQHUPl4NejqoUbk-2" value="CPU" style="rounded=0;whiteSpace=wrap;html=1;" parent="1" vertex="1">
          <mxGeometry x="191" y="40" width="80" height="40" as="geometry" />
        </mxCell>
        <mxCell id="0O0ggUQHUPl4NejqoUbk-3" value="显示器" style="rounded=0;whiteSpace=wrap;html=1;" parent="1" vertex="1">
          <mxGeometry x="71" y="120" width="80" height="40" as="geometry" />
        </mxCell>
        <mxCell id="0O0ggUQHUPl4NejqoUbk-4" value="主存储/内存" style="rounded=0;whiteSpace=wrap;html=1;" parent="1" vertex="1">
          <mxGeometry x="311" y="120" width="80" height="40" as="geometry" />
        </mxCell>
        <mxCell id="0O0ggUQHUPl4NejqoUbk-5" value="IO南桥芯片" style="rounded=0;whiteSpace=wrap;html=1;fillColor=#dae8fc;strokeColor=#6c8ebf;" parent="1" vertex="1">
          <mxGeometry x="79" y="200" width="300" height="40" as="geometry" />
        </mxCell>
        <mxCell id="0O0ggUQHUPl4NejqoUbk-6" value="USB接口" style="rounded=0;whiteSpace=wrap;html=1;" parent="1" vertex="1">
          <mxGeometry x="25" y="280" width="60" height="40" as="geometry" />
        </mxCell>
        <mxCell id="0O0ggUQHUPl4NejqoUbk-7" value="磁盘通道" style="rounded=0;whiteSpace=wrap;html=1;" parent="1" vertex="1">
          <mxGeometry x="105" y="280" width="60" height="40" as="geometry" />
        </mxCell>
        <mxCell id="0O0ggUQHUPl4NejqoUbk-8" value="声频通道" style="rounded=0;whiteSpace=wrap;html=1;" parent="1" vertex="1">
          <mxGeometry x="185" y="280" width="60" height="40" as="geometry" />
        </mxCell>
        <mxCell id="0O0ggUQHUPl4NejqoUbk-9" value="Flash BIOS" style="rounded=0;whiteSpace=wrap;html=1;" parent="1" vertex="1">
          <mxGeometry x="265" y="280" width="60" height="40" as="geometry" />
        </mxCell>
        <mxCell id="0O0ggUQHUPl4NejqoUbk-10" value="网络接口" style="rounded=0;whiteSpace=wrap;html=1;" parent="1" vertex="1">
          <mxGeometry x="345" y="280" width="60" height="40" as="geometry" />
        </mxCell>
        <mxCell id="0O0ggUQHUPl4NejqoUbk-11" value="PCI扩展槽" style="rounded=0;whiteSpace=wrap;html=1;" parent="1" vertex="1">
          <mxGeometry x="414" y="185" width="45" height="70" as="geometry" />
        </mxCell>
        <mxCell id="0O0ggUQHUPl4NejqoUbk-16" value="" style="html=1;shadow=0;dashed=0;align=center;verticalAlign=middle;shape=mxgraph.arrows2.twoWayArrow;dy=0.65;dx=22;rotation=90;" parent="1" vertex="1">
          <mxGeometry x="204.67000000000002" y="85" width="52.66" height="26.02" as="geometry" />
        </mxCell>
        <mxCell id="0O0ggUQHUPl4NejqoUbk-17" value="系统总线" style="text;html=1;strokeColor=none;fillColor=none;align=center;verticalAlign=middle;whiteSpace=wrap;rounded=0;" parent="1" vertex="1">
          <mxGeometry x="241" y="91.02" width="55" height="20" as="geometry" />
        </mxCell>
        <mxCell id="0O0ggUQHUPl4NejqoUbk-19" value="" style="html=1;shadow=0;dashed=0;align=center;verticalAlign=middle;shape=mxgraph.arrows2.twoWayArrow;dy=0.65;dx=22;rotation=90;" parent="1" vertex="1">
          <mxGeometry x="53.66999999999999" y="255" width="52.66" height="15" as="geometry" />
        </mxCell>
        <mxCell id="0O0ggUQHUPl4NejqoUbk-20" value="" style="html=1;shadow=0;dashed=0;align=center;verticalAlign=middle;shape=mxgraph.arrows2.twoWayArrow;dy=0.65;dx=22;rotation=90;" parent="1" vertex="1">
          <mxGeometry x="108.66999999999999" y="255" width="52.66" height="15" as="geometry" />
        </mxCell>
        <mxCell id="0O0ggUQHUPl4NejqoUbk-21" value="" style="html=1;shadow=0;dashed=0;align=center;verticalAlign=middle;shape=mxgraph.arrows2.twoWayArrow;dy=0.65;dx=22;rotation=90;" parent="1" vertex="1">
          <mxGeometry x="192.33999999999997" y="255" width="52.66" height="15" as="geometry" />
        </mxCell>
        <mxCell id="0O0ggUQHUPl4NejqoUbk-22" value="" style="html=1;shadow=0;dashed=0;align=center;verticalAlign=middle;shape=mxgraph.arrows2.twoWayArrow;dy=0.65;dx=22;rotation=90;" parent="1" vertex="1">
          <mxGeometry x="265" y="255" width="52.66" height="15" as="geometry" />
        </mxCell>
        <mxCell id="0O0ggUQHUPl4NejqoUbk-23" value="" style="html=1;shadow=0;dashed=0;align=center;verticalAlign=middle;shape=mxgraph.arrows2.twoWayArrow;dy=0.65;dx=22;rotation=90;" parent="1" vertex="1">
          <mxGeometry x="345" y="255" width="52.66" height="15" as="geometry" />
        </mxCell>
        <mxCell id="0O0ggUQHUPl4NejqoUbk-24" value="" style="html=1;shadow=0;dashed=0;align=center;verticalAlign=middle;shape=mxgraph.arrows2.twoWayArrow;dy=0.65;dx=22;rotation=90;" parent="1" vertex="1">
          <mxGeometry x="203.67000000000002" y="170" width="52.66" height="26.02" as="geometry" />
        </mxCell>
        <mxCell id="0O0ggUQHUPl4NejqoUbk-25" value="" style="html=1;shadow=0;dashed=0;align=center;verticalAlign=middle;shape=mxgraph.arrows2.twoWayArrow;dy=0.65;dx=22;rotation=0;" parent="1" vertex="1">
          <mxGeometry x="143.34000000000003" y="126.97999999999999" width="52.66" height="26.02" as="geometry" />
        </mxCell>
        <mxCell id="0O0ggUQHUPl4NejqoUbk-26" value="" style="html=1;shadow=0;dashed=0;align=center;verticalAlign=middle;shape=mxgraph.arrows2.twoWayArrow;dy=0.65;dx=22;rotation=0;" parent="1" vertex="1">
          <mxGeometry x="265" y="126.97999999999999" width="52.66" height="26.02" as="geometry" />
        </mxCell>
        <mxCell id="0O0ggUQHUPl4NejqoUbk-27" value="" style="html=1;shadow=0;dashed=0;align=center;verticalAlign=middle;shape=mxgraph.arrows2.twoWayArrow;dy=0.65;dx=22;rotation=0;" parent="1" vertex="1">
          <mxGeometry x="370" y="206.98999999999998" width="52.66" height="26.02" as="geometry" />
        </mxCell>
        <mxCell id="0O0ggUQHUPl4NejqoUbk-28" value="计算机结构图" style="text;html=1;strokeColor=none;fillColor=none;align=center;verticalAlign=middle;whiteSpace=wrap;rounded=0;fontStyle=1" parent="1" vertex="1">
          <mxGeometry x="177.32999999999998" y="9" width="113.67" height="20" as="geometry" />
        </mxCell>
        <mxCell id="0O0ggUQHUPl4NejqoUbk-29" value="网卡IO流程" style="text;html=1;strokeColor=none;fillColor=none;align=center;verticalAlign=middle;whiteSpace=wrap;rounded=0;fontStyle=1" parent="1" vertex="1">
          <mxGeometry x="606" y="20" width="110" height="20" as="geometry" />
        </mxCell>
        <mxCell id="0O0ggUQHUPl4NejqoUbk-31" value="网卡" style="rounded=0;whiteSpace=wrap;html=1;" parent="1" vertex="1">
          <mxGeometry x="532" y="57.040000000000006" width="40" height="33.98" as="geometry" />
        </mxCell>
        <mxCell id="0O0ggUQHUPl4NejqoUbk-32" value="网线" style="html=1;shadow=0;dashed=0;align=center;verticalAlign=middle;shape=mxgraph.arrows2.arrow;dy=0;dx=10;notch=10;" parent="1" vertex="1">
          <mxGeometry x="432" y="73.52" width="100" height="11.48" as="geometry" />
        </mxCell>
        <mxCell id="0O0ggUQHUPl4NejqoUbk-34" value="主内存：&lt;br&gt;内核地址空间" style="whiteSpace=wrap;html=1;aspect=fixed;fillColor=#f5f5f5;strokeColor=#666666;fontColor=#333333;" parent="1" vertex="1">
          <mxGeometry x="691" y="111.02" width="80" height="80" as="geometry" />
        </mxCell>
        <mxCell id="0O0ggUQHUPl4NejqoUbk-37" value="操作系统&lt;br&gt;内核程序" style="rounded=1;whiteSpace=wrap;html=1;" parent="1" vertex="1">
          <mxGeometry x="621" y="111.02" width="70" height="80" as="geometry" />
        </mxCell>
        <mxCell id="YSoHbs1g0Of7jDAoTYoA-2" value="用户程序" style="rounded=1;whiteSpace=wrap;html=1;" parent="1" vertex="1">
          <mxGeometry x="620" y="240" width="71" height="60" as="geometry" />
        </mxCell>
        <mxCell id="YSoHbs1g0Of7jDAoTYoA-3" value="主内存：&lt;br&gt;用户地址空间" style="whiteSpace=wrap;html=1;aspect=fixed;fillColor=#fff2cc;strokeColor=#d6b656;" parent="1" vertex="1">
          <mxGeometry x="691" y="240" width="120" height="120" as="geometry" />
        </mxCell>
        <mxCell id="YSoHbs1g0Of7jDAoTYoA-6" value="" style="endArrow=classic;html=1;entryX=0.158;entryY=0;entryDx=0;entryDy=0;entryPerimeter=0;" parent="1" target="YSoHbs1g0Of7jDAoTYoA-3" edge="1">
          <mxGeometry width="50" height="50" relative="1" as="geometry">
            <mxPoint x="710" y="190" as="sourcePoint" />
            <mxPoint x="440" y="370" as="targetPoint" />
          </mxGeometry>
        </mxCell>
        <mxCell id="YSoHbs1g0Of7jDAoTYoA-7" value="read" style="text;html=1;align=center;verticalAlign=middle;resizable=0;points=[];autosize=1;" parent="1" vertex="1">
          <mxGeometry x="676" y="200" width="40" height="20" as="geometry" />
        </mxCell>
        <mxCell id="YSoHbs1g0Of7jDAoTYoA-8" value="" style="endArrow=classic;html=1;entryX=0.75;entryY=1;entryDx=0;entryDy=0;" parent="1" source="YSoHbs1g0Of7jDAoTYoA-3" target="0O0ggUQHUPl4NejqoUbk-34" edge="1">
          <mxGeometry width="50" height="50" relative="1" as="geometry">
            <mxPoint x="390" y="420" as="sourcePoint" />
            <mxPoint x="440" y="370" as="targetPoint" />
          </mxGeometry>
        </mxCell>
        <mxCell id="YSoHbs1g0Of7jDAoTYoA-9" value="write" style="text;html=1;align=center;verticalAlign=middle;resizable=0;points=[];autosize=1;" parent="1" vertex="1">
          <mxGeometry x="745" y="200" width="40" height="20" as="geometry" />
        </mxCell>
        <mxCell id="YSoHbs1g0Of7jDAoTYoA-10" value="CPU" style="rounded=0;whiteSpace=wrap;html=1;" parent="1" vertex="1">
          <mxGeometry x="525.66" y="145" width="52" height="40" as="geometry" />
        </mxCell>
        <mxCell id="YSoHbs1g0Of7jDAoTYoA-11" value="" style="endArrow=none;html=1;" parent="1" source="YSoHbs1g0Of7jDAoTYoA-10" target="0O0ggUQHUPl4NejqoUbk-31" edge="1">
          <mxGeometry width="50" height="50" relative="1" as="geometry">
            <mxPoint x="530" y="196.02" as="sourcePoint" />
            <mxPoint x="585" y="146" as="targetPoint" />
          </mxGeometry>
        </mxCell>
        <mxCell id="YSoHbs1g0Of7jDAoTYoA-14" value="发信号&lt;br&gt;CPU中断" style="text;html=1;align=center;verticalAlign=middle;resizable=0;points=[];autosize=1;" parent="1" vertex="1">
          <mxGeometry x="500" y="111.01999999999998" width="60" height="30" as="geometry" />
        </mxCell>
        <mxCell id="YSoHbs1g0Of7jDAoTYoA-16" value="" style="endArrow=none;html=1;exitX=1;exitY=0.5;exitDx=0;exitDy=0;" parent="1" source="YSoHbs1g0Of7jDAoTYoA-10" edge="1">
          <mxGeometry width="50" height="50" relative="1" as="geometry">
            <mxPoint x="613" y="201" as="sourcePoint" />
            <mxPoint x="620" y="165" as="targetPoint" />
          </mxGeometry>
        </mxCell>
        <mxCell id="YSoHbs1g0Of7jDAoTYoA-17" value="操作系统进程调度" style="text;html=1;align=center;verticalAlign=middle;resizable=0;points=[];autosize=1;fontStyle=1" parent="1" vertex="1">
          <mxGeometry x="294" y="420" width="110" height="20" as="geometry" />
        </mxCell>
        <mxCell id="YSoHbs1g0Of7jDAoTYoA-25" value="" style="edgeStyle=orthogonalEdgeStyle;rounded=0;orthogonalLoop=1;jettySize=auto;html=1;entryX=0;entryY=0.5;entryDx=0;entryDy=0;" parent="1" source="YSoHbs1g0Of7jDAoTYoA-18" edge="1">
          <mxGeometry relative="1" as="geometry">
            <mxPoint x="285" y="465" as="targetPoint" />
          </mxGeometry>
        </mxCell>
        <mxCell id="YSoHbs1g0Of7jDAoTYoA-18" value="就绪队列" style="whiteSpace=wrap;html=1;fillColor=#d5e8d4;strokeColor=#82b366;" parent="1" vertex="1">
          <mxGeometry x="199" y="450" width="60" height="30" as="geometry" />
        </mxCell>
        <mxCell id="YSoHbs1g0Of7jDAoTYoA-30" value="" style="edgeStyle=orthogonalEdgeStyle;rounded=0;orthogonalLoop=1;jettySize=auto;html=1;" parent="1" source="YSoHbs1g0Of7jDAoTYoA-21" target="YSoHbs1g0Of7jDAoTYoA-22" edge="1">
          <mxGeometry relative="1" as="geometry" />
        </mxCell>
        <mxCell id="YSoHbs1g0Of7jDAoTYoA-21" value="进程B" style="whiteSpace=wrap;html=1;" parent="1" vertex="1">
          <mxGeometry x="285" y="450" width="60" height="30" as="geometry" />
        </mxCell>
        <mxCell id="YSoHbs1g0Of7jDAoTYoA-22" value="进程C" style="whiteSpace=wrap;html=1;" parent="1" vertex="1">
          <mxGeometry x="365" y="450" width="60" height="30" as="geometry" />
        </mxCell>
        <mxCell id="YSoHbs1g0Of7jDAoTYoA-31" value="" style="edgeStyle=orthogonalEdgeStyle;rounded=0;orthogonalLoop=1;jettySize=auto;html=1;entryX=0;entryY=0.5;entryDx=0;entryDy=0;" parent="1" source="YSoHbs1g0Of7jDAoTYoA-32" target="YSoHbs1g0Of7jDAoTYoA-33" edge="1">
          <mxGeometry relative="1" as="geometry" />
        </mxCell>
        <mxCell id="YSoHbs1g0Of7jDAoTYoA-32" value="阻塞队列" style="whiteSpace=wrap;html=1;fillColor=#f8cecc;strokeColor=#b85450;" parent="1" vertex="1">
          <mxGeometry x="199" y="500" width="60" height="30" as="geometry" />
        </mxCell>
        <mxCell id="YSoHbs1g0Of7jDAoTYoA-33" value="进程A" style="whiteSpace=wrap;html=1;" parent="1" vertex="1">
          <mxGeometry x="285" y="500" width="60" height="30" as="geometry" />
        </mxCell>
        <mxCell id="YSoHbs1g0Of7jDAoTYoA-34" value="文件列表(fd)&lt;br&gt;1&lt;br&gt;2&lt;br&gt;3&lt;br&gt;...&lt;br&gt;6000&lt;br&gt;..." style="whiteSpace=wrap;html=1;" parent="1" vertex="1">
          <mxGeometry x="161" y="580" width="80" height="100" as="geometry" />
        </mxCell>
        <mxCell id="YSoHbs1g0Of7jDAoTYoA-43" value="" style="edgeStyle=orthogonalEdgeStyle;rounded=0;orthogonalLoop=1;jettySize=auto;html=1;" parent="1" edge="1">
          <mxGeometry relative="1" as="geometry">
            <mxPoint x="361" y="663" as="sourcePoint" />
            <mxPoint x="439" y="663" as="targetPoint" />
          </mxGeometry>
        </mxCell>
        <mxCell id="YSoHbs1g0Of7jDAoTYoA-35" value="发送缓冲区(内核)&lt;br&gt;接收缓冲区(内核)&lt;br&gt;等待列表" style="shape=cylinder3;whiteSpace=wrap;html=1;boundedLbl=1;backgroundOutline=1;size=15;align=center;fillColor=#f5f5f5;strokeColor=#666666;fontColor=#333333;" parent="1" vertex="1">
          <mxGeometry x="265.66999999999996" y="580" width="95.33" height="100" as="geometry" />
        </mxCell>
        <mxCell id="YSoHbs1g0Of7jDAoTYoA-36" value="" style="endArrow=none;dashed=1;html=1;entryX=1;entryY=0.75;entryDx=0;entryDy=0;exitX=1;exitY=0;exitDx=0;exitDy=67.5;exitPerimeter=0;" parent="1" edge="1" source="YSoHbs1g0Of7jDAoTYoA-35">
          <mxGeometry width="50" height="50" relative="1" as="geometry">
            <mxPoint x="400" y="636" as="sourcePoint" />
            <mxPoint x="345" y="513.75" as="targetPoint" />
            <Array as="points">
              <mxPoint x="410" y="636" />
              <mxPoint x="410" y="561" />
            </Array>
          </mxGeometry>
        </mxCell>
        <mxCell id="YSoHbs1g0Of7jDAoTYoA-37" value="socket" style="text;html=1;strokeColor=none;fillColor=none;align=center;verticalAlign=middle;whiteSpace=wrap;rounded=0;" parent="1" vertex="1">
          <mxGeometry x="292" y="585" width="40" height="20" as="geometry" />
        </mxCell>
        <mxCell id="YSoHbs1g0Of7jDAoTYoA-38" value="" style="endArrow=none;html=1;exitX=0.667;exitY=0.8;exitDx=0;exitDy=0;exitPerimeter=0;" parent="1" source="YSoHbs1g0Of7jDAoTYoA-34" target="YSoHbs1g0Of7jDAoTYoA-37" edge="1">
          <mxGeometry width="50" height="50" relative="1" as="geometry">
            <mxPoint x="451" y="480" as="sourcePoint" />
            <mxPoint x="501" y="430" as="targetPoint" />
          </mxGeometry>
        </mxCell>
        <mxCell id="YSoHbs1g0Of7jDAoTYoA-39" value="调用recv()阻塞方法时，&lt;br&gt;进程A进入阻塞队列(不占用CPU资源)，&lt;br&gt;同时被该socket所引用" style="text;html=1;align=left;verticalAlign=middle;resizable=0;points=[];autosize=1;" parent="1" vertex="1">
          <mxGeometry x="411" y="490" width="220" height="50" as="geometry" />
        </mxCell>
        <mxCell id="YSoHbs1g0Of7jDAoTYoA-40" value="1.计算机收到了对端传送的数据&lt;br&gt;2.网卡通过中断信号通知cpu有数据到达&lt;br&gt;3.cpu执行中断程序(内核)：&lt;br&gt;&amp;nbsp; 先将网络数据写入到对应socket的接收缓冲区&lt;br&gt;&amp;nbsp; 再唤醒进程A，放入就绪队列&lt;br&gt;4.recv()读取数据到用户空间，并返回" style="text;html=1;align=left;verticalAlign=middle;resizable=0;points=[];autosize=1;" parent="1" vertex="1">
          <mxGeometry x="378.66" y="700" width="260" height="90" as="geometry" />
        </mxCell>
        <mxCell id="YSoHbs1g0Of7jDAoTYoA-41" value="用户地址空间" style="whiteSpace=wrap;html=1;aspect=fixed;fillColor=#fff2cc;strokeColor=#d6b656;" parent="1" vertex="1">
          <mxGeometry x="438" y="620" width="80" height="80" as="geometry" />
        </mxCell>
        <mxCell id="YSoHbs1g0Of7jDAoTYoA-44" value="recv()返回" style="text;html=1;align=center;verticalAlign=middle;resizable=0;points=[];autosize=1;" parent="1" vertex="1">
          <mxGeometry x="372" y="665" width="70" height="20" as="geometry" />
        </mxCell>
        <mxCell id="YSoHbs1g0Of7jDAoTYoA-46" value="网卡内存" style="whiteSpace=wrap;html=1;aspect=fixed;fillColor=#f5f5f5;strokeColor=#666666;fontColor=#333333;" parent="1" vertex="1">
          <mxGeometry x="572" y="47.5" width="51.25" height="51.25" as="geometry" />
        </mxCell>
        <mxCell id="YSoHbs1g0Of7jDAoTYoA-48" value="" style="endArrow=classic;startArrow=classic;html=1;entryX=1;entryY=0.5;entryDx=0;entryDy=0;exitX=0.5;exitY=0;exitDx=0;exitDy=0;" parent="1" source="0O0ggUQHUPl4NejqoUbk-34" target="YSoHbs1g0Of7jDAoTYoA-46" edge="1">
          <mxGeometry width="50" height="50" relative="1" as="geometry">
            <mxPoint x="390" y="400" as="sourcePoint" />
            <mxPoint x="440" y="350" as="targetPoint" />
          </mxGeometry>
        </mxCell>
        <mxCell id="YSoHbs1g0Of7jDAoTYoA-49" value="端口号&lt;br&gt;1&lt;br&gt;2&lt;br&gt;3&lt;br&gt;...&lt;br&gt;1234&lt;br&gt;..." style="whiteSpace=wrap;html=1;" parent="1" vertex="1">
          <mxGeometry x="70" y="580" width="70" height="100" as="geometry" />
        </mxCell>
        <mxCell id="YSoHbs1g0Of7jDAoTYoA-51" value="" style="rounded=0;whiteSpace=wrap;html=1;align=left;" parent="1" vertex="1">
          <mxGeometry x="132.32999999999998" y="620" width="35" height="20" as="geometry" />
        </mxCell>
        <mxCell id="IQ0oZYOpI-zYL626lHms-1" value="" style="edgeStyle=orthogonalEdgeStyle;rounded=0;orthogonalLoop=1;jettySize=auto;html=1;entryX=0;entryY=0.5;entryDx=0;entryDy=0;" parent="1" source="IQ0oZYOpI-zYL626lHms-2" edge="1">
          <mxGeometry relative="1" as="geometry">
            <mxPoint x="219.66999999999996" y="878" as="targetPoint" />
          </mxGeometry>
        </mxCell>
        <mxCell id="IQ0oZYOpI-zYL626lHms-2" value="就绪队列" style="whiteSpace=wrap;html=1;fillColor=#d5e8d4;strokeColor=#82b366;" parent="1" vertex="1">
          <mxGeometry x="133.67" y="863" width="60" height="30" as="geometry" />
        </mxCell>
        <mxCell id="IQ0oZYOpI-zYL626lHms-3" value="" style="edgeStyle=orthogonalEdgeStyle;rounded=0;orthogonalLoop=1;jettySize=auto;html=1;" parent="1" source="IQ0oZYOpI-zYL626lHms-4" target="IQ0oZYOpI-zYL626lHms-5" edge="1">
          <mxGeometry relative="1" as="geometry" />
        </mxCell>
        <mxCell id="IQ0oZYOpI-zYL626lHms-4" value="进程B" style="whiteSpace=wrap;html=1;" parent="1" vertex="1">
          <mxGeometry x="219.66999999999996" y="863" width="60" height="30" as="geometry" />
        </mxCell>
        <mxCell id="IQ0oZYOpI-zYL626lHms-5" value="进程C" style="whiteSpace=wrap;html=1;" parent="1" vertex="1">
          <mxGeometry x="299.66999999999996" y="863" width="60" height="30" as="geometry" />
        </mxCell>
        <mxCell id="IQ0oZYOpI-zYL626lHms-6" value="" style="edgeStyle=orthogonalEdgeStyle;rounded=0;orthogonalLoop=1;jettySize=auto;html=1;entryX=0;entryY=0.5;entryDx=0;entryDy=0;" parent="1" source="IQ0oZYOpI-zYL626lHms-7" target="IQ0oZYOpI-zYL626lHms-8" edge="1">
          <mxGeometry relative="1" as="geometry" />
        </mxCell>
        <mxCell id="IQ0oZYOpI-zYL626lHms-7" value="阻塞队列" style="whiteSpace=wrap;html=1;fillColor=#f8cecc;strokeColor=#b85450;" parent="1" vertex="1">
          <mxGeometry x="133.67" y="913" width="60" height="30" as="geometry" />
        </mxCell>
        <mxCell id="IQ0oZYOpI-zYL626lHms-8" value="进程A" style="whiteSpace=wrap;html=1;" parent="1" vertex="1">
          <mxGeometry x="403" y="913" width="60" height="30" as="geometry" />
        </mxCell>
        <mxCell id="IQ0oZYOpI-zYL626lHms-9" value="文件列表(fd)&lt;br&gt;1&lt;br&gt;2&lt;br&gt;3&lt;br&gt;...&lt;br&gt;6000&lt;br&gt;..." style="whiteSpace=wrap;html=1;" parent="1" vertex="1">
          <mxGeometry x="42" y="978" width="80" height="190" as="geometry" />
        </mxCell>
        <mxCell id="IQ0oZYOpI-zYL626lHms-10" value="" style="shape=cylinder3;whiteSpace=wrap;html=1;boundedLbl=1;backgroundOutline=1;size=15;align=center;fillColor=#f5f5f5;strokeColor=#666666;fontColor=#333333;" parent="1" vertex="1">
          <mxGeometry x="172.01" y="993" width="58.99" height="100" as="geometry" />
        </mxCell>
        <mxCell id="IQ0oZYOpI-zYL626lHms-11" value="socket1" style="text;html=1;strokeColor=none;fillColor=none;align=center;verticalAlign=middle;whiteSpace=wrap;rounded=0;" parent="1" vertex="1">
          <mxGeometry x="186" y="993" width="40" height="20" as="geometry" />
        </mxCell>
        <mxCell id="IQ0oZYOpI-zYL626lHms-12" value="" style="endArrow=none;html=1;" parent="1" source="IQ0oZYOpI-zYL626lHms-9" target="IQ0oZYOpI-zYL626lHms-11" edge="1">
          <mxGeometry width="50" height="50" relative="1" as="geometry">
            <mxPoint x="444.66999999999996" y="873" as="sourcePoint" />
            <mxPoint x="494.66999999999996" y="823" as="targetPoint" />
          </mxGeometry>
        </mxCell>
        <mxCell id="IQ0oZYOpI-zYL626lHms-14" value="最原始的select，同时监控多个socket" style="text;html=1;align=center;verticalAlign=middle;resizable=0;points=[];autosize=1;fontStyle=1" parent="1" vertex="1">
          <mxGeometry x="139.66999999999996" y="833" width="220" height="20" as="geometry" />
        </mxCell>
        <mxCell id="IQ0oZYOpI-zYL626lHms-15" value="" style="shape=cylinder3;whiteSpace=wrap;html=1;boundedLbl=1;backgroundOutline=1;size=15;align=center;fillColor=#f5f5f5;strokeColor=#666666;fontColor=#333333;" parent="1" vertex="1">
          <mxGeometry x="280.67" y="1048" width="62.99" height="100" as="geometry" />
        </mxCell>
        <mxCell id="IQ0oZYOpI-zYL626lHms-16" value="" style="shape=cylinder3;whiteSpace=wrap;html=1;boundedLbl=1;backgroundOutline=1;size=15;align=center;fillColor=#f5f5f5;strokeColor=#666666;fontColor=#333333;" parent="1" vertex="1">
          <mxGeometry x="191.32999999999998" y="1143" width="59.67" height="100" as="geometry" />
        </mxCell>
        <mxCell id="IQ0oZYOpI-zYL626lHms-17" value="socket2" style="text;html=1;strokeColor=none;fillColor=none;align=center;verticalAlign=middle;whiteSpace=wrap;rounded=0;" parent="1" vertex="1">
          <mxGeometry x="295.66" y="1048" width="40" height="20" as="geometry" />
        </mxCell>
        <mxCell id="IQ0oZYOpI-zYL626lHms-18" value="socket3" style="text;html=1;strokeColor=none;fillColor=none;align=center;verticalAlign=middle;whiteSpace=wrap;rounded=0;" parent="1" vertex="1">
          <mxGeometry x="201.99999999999994" y="1148" width="40" height="20" as="geometry" />
        </mxCell>
        <mxCell id="IQ0oZYOpI-zYL626lHms-32" value="" style="endArrow=none;html=1;entryX=0.25;entryY=1;entryDx=0;entryDy=0;exitX=1;exitY=0.75;exitDx=0;exitDy=0;" parent="1" target="IQ0oZYOpI-zYL626lHms-17" edge="1" source="IQ0oZYOpI-zYL626lHms-9">
          <mxGeometry width="50" height="50" relative="1" as="geometry">
            <mxPoint x="116.33000000000001" y="1138" as="sourcePoint" />
            <mxPoint x="216.33000000000004" y="978" as="targetPoint" />
          </mxGeometry>
        </mxCell>
        <mxCell id="IQ0oZYOpI-zYL626lHms-33" value="" style="endArrow=none;html=1;exitX=0.988;exitY=0.868;exitDx=0;exitDy=0;exitPerimeter=0;entryX=0;entryY=0.75;entryDx=0;entryDy=0;" parent="1" source="IQ0oZYOpI-zYL626lHms-9" target="IQ0oZYOpI-zYL626lHms-18" edge="1">
          <mxGeometry width="50" height="50" relative="1" as="geometry">
            <mxPoint x="271" y="1003" as="sourcePoint" />
            <mxPoint x="321" y="953" as="targetPoint" />
          </mxGeometry>
        </mxCell>
        <mxCell id="IQ0oZYOpI-zYL626lHms-35" value="" style="endArrow=none;dashed=1;html=1;entryX=0;entryY=1;entryDx=0;entryDy=0;exitX=1;exitY=0;exitDx=0;exitDy=67.5;exitPerimeter=0;" parent="1" source="IQ0oZYOpI-zYL626lHms-10" target="IQ0oZYOpI-zYL626lHms-8" edge="1">
          <mxGeometry width="50" height="50" relative="1" as="geometry">
            <mxPoint x="271" y="1003" as="sourcePoint" />
            <mxPoint x="321" y="953" as="targetPoint" />
          </mxGeometry>
        </mxCell>
        <mxCell id="IQ0oZYOpI-zYL626lHms-36" value="" style="endArrow=none;dashed=1;html=1;entryX=0.4;entryY=1;entryDx=0;entryDy=0;exitX=1;exitY=0;exitDx=0;exitDy=67.5;exitPerimeter=0;entryPerimeter=0;" parent="1" source="IQ0oZYOpI-zYL626lHms-15" target="IQ0oZYOpI-zYL626lHms-8" edge="1">
          <mxGeometry width="50" height="50" relative="1" as="geometry">
            <mxPoint x="271" y="1003" as="sourcePoint" />
            <mxPoint x="321" y="953" as="targetPoint" />
            <Array as="points" />
          </mxGeometry>
        </mxCell>
        <mxCell id="IQ0oZYOpI-zYL626lHms-37" value="" style="endArrow=none;dashed=1;html=1;exitX=1;exitY=0;exitDx=0;exitDy=67.5;exitPerimeter=0;" parent="1" source="IQ0oZYOpI-zYL626lHms-16" edge="1">
          <mxGeometry width="50" height="50" relative="1" as="geometry">
            <mxPoint x="271" y="1003" as="sourcePoint" />
            <mxPoint x="451" y="943" as="targetPoint" />
            <Array as="points">
              <mxPoint x="361" y="1163" />
            </Array>
          </mxGeometry>
        </mxCell>
        <mxCell id="jj7dlDyVsFg3a79DTdNf-30" value="fd0" style="rounded=0;whiteSpace=wrap;html=1;" vertex="1" parent="1">
          <mxGeometry x="441" y="1013" width="40" height="40" as="geometry" />
        </mxCell>
        <mxCell id="jj7dlDyVsFg3a79DTdNf-31" value="fd1" style="rounded=0;whiteSpace=wrap;html=1;" vertex="1" parent="1">
          <mxGeometry x="481" y="1013" width="40" height="40" as="geometry" />
        </mxCell>
        <mxCell id="jj7dlDyVsFg3a79DTdNf-32" value="fd2" style="rounded=0;whiteSpace=wrap;html=1;" vertex="1" parent="1">
          <mxGeometry x="521" y="1013" width="40" height="40" as="geometry" />
        </mxCell>
        <mxCell id="jj7dlDyVsFg3a79DTdNf-34" value="fd3" style="rounded=0;whiteSpace=wrap;html=1;" vertex="1" parent="1">
          <mxGeometry x="561" y="1013" width="40" height="40" as="geometry" />
        </mxCell>
        <mxCell id="jj7dlDyVsFg3a79DTdNf-35" value="&lt;div style=&quot;text-align: left&quot;&gt;&lt;span&gt;select维护一个数组，保存所有监听fd&lt;/span&gt;&lt;/div&gt;&lt;div style=&quot;text-align: left&quot;&gt;&lt;span&gt;&lt;br&gt;&lt;/span&gt;&lt;/div&gt;&lt;div style=&quot;text-align: left&quot;&gt;&lt;span&gt;每次调用select都需要将进程加入到所有监视socket的等待队列(第一次遍历)&lt;br&gt;&lt;/span&gt;&lt;/div&gt;&lt;div style=&quot;text-align: left&quot;&gt;&lt;span&gt;每次唤醒都需要从每个队列中移除(再一次遍历)&lt;br&gt;&lt;/span&gt;&lt;/div&gt;&lt;div style=&quot;text-align: left&quot;&gt;&lt;span&gt;&lt;br&gt;&lt;/span&gt;&lt;/div&gt;&lt;div style=&quot;text-align: left&quot;&gt;&lt;span&gt;当程序调用select时，内核会[先遍历一遍]socket，如果有socket有数据则返回&lt;br&gt;&lt;/span&gt;&lt;/div&gt;&lt;div style=&quot;text-align: left&quot;&gt;&lt;span&gt;进程被唤醒后，程序并不知道哪些socket收到数据，应用层[还需要遍历一次]&lt;br&gt;&lt;/span&gt;&lt;/div&gt;" style="text;html=1;align=center;verticalAlign=middle;resizable=0;points=[];autosize=1;" vertex="1" parent="1">
          <mxGeometry x="404" y="1060" width="420" height="100" as="geometry" />
        </mxCell>
        <mxCell id="jj7dlDyVsFg3a79DTdNf-37" value="fd4" style="rounded=0;whiteSpace=wrap;html=1;" vertex="1" parent="1">
          <mxGeometry x="601" y="1013" width="40" height="40" as="geometry" />
        </mxCell>
        <mxCell id="jj7dlDyVsFg3a79DTdNf-38" value="epoll高效多路IO复用" style="text;html=1;align=center;verticalAlign=middle;resizable=0;points=[];autosize=1;fontStyle=1" vertex="1" parent="1">
          <mxGeometry x="283.99999999999994" y="1290" width="130" height="20" as="geometry" />
        </mxCell>
      </root>
    </mxGraphModel>
  </diagram>
</mxfile>
